HIERARCHY
ROOT root
{
	OFFSET	0	13.1	24.9
	CHANNELS 6  Xposition Yposition Zposition Xrotation Yrotation Zrotation
	JOINT spine_1
	{
		OFFSET	0	9.99999	0
		CHANNELS 3  Xrotation Yrotation Zrotation
		JOINT spine_2
		{
			OFFSET	0	112	-10
			CHANNELS 3  Xrotation Yrotation Zrotation
			JOINT spine_3
			{
				OFFSET	0	206.5	19.3
				CHANNELS 3  Xrotation Yrotation Zrotation
				JOINT spine_4
				{
					OFFSET	0	110.4	14.6
					CHANNELS 3  Xrotation Yrotation Zrotation
					JOINT neck_1
					{
						OFFSET	0	71.8	-50.3
						CHANNELS 3  Xrotation Yrotation Zrotation
						JOINT neck_2
						{
							OFFSET	0	86.2	-25.8
							CHANNELS 3  Xrotation Yrotation Zrotation
							JOINT head_ee
							{
								OFFSET	0	179.8	-8.7
								CHANNELS 3  Xrotation Yrotation Zrotation
								End Site
								{
									OFFSET	1	0	0
								}
							}
						}
					}
					JOINT left_clavicle
					{
						OFFSET	-43.2	22.4	-70.8
						CHANNELS 3  Xrotation Yrotation Zrotation
						JOINT left_shoulder
						{
							OFFSET	-93.9	-5.79999	48.7
							CHANNELS 3  Xrotation Yrotation Zrotation
							JOINT left_elbow
							{
								OFFSET	-291.4	-30.8	15.2
								CHANNELS 3  Xrotation Yrotation Zrotation
								JOINT left_lowarm_twist
								{
									OFFSET	-110.7	-3.89999	13.6
									CHANNELS 3  Xrotation Yrotation Zrotation
									JOINT left_hand
									{
										OFFSET	-110.7	-3.89999	13.6
										CHANNELS 3  Xrotation Yrotation Zrotation
										JOINT left_ee
										{
											OFFSET	-80.8	-5.10001	12.1
											CHANNELS 3  Xrotation Yrotation Zrotation
											End Site
											{
												OFFSET	1	0	0
											}
										}
									}
								}
							}
						}
					}
					JOINT right_clavicle
					{
						OFFSET	43.2	22.4	-70.8
						CHANNELS 3  Xrotation Yrotation Zrotation
						JOINT right_shoulder
						{
							OFFSET	93.9	-5.79999	48.7
							CHANNELS 3  Xrotation Yrotation Zrotation
							JOINT right_elbow
							{
								OFFSET	291.4	-30.8	15.2
								CHANNELS 3  Xrotation Yrotation Zrotation
								JOINT right_lowarm_twist
								{
									OFFSET	110.7	-3.89999	13.6
									CHANNELS 3  Xrotation Yrotation Zrotation
									JOINT right_hand
									{
										OFFSET	110.7	-3.89999	13.6
										CHANNELS 3  Xrotation Yrotation Zrotation
										JOINT right_ee
										{
											OFFSET	80.8	-5.10001	12.1
											CHANNELS 3  Xrotation Yrotation Zrotation
											End Site
											{
												OFFSET	1	0	0
											}
										}
									}
								}
							}
						}
					}
				}
			}
		}
	}
	JOINT left_hip
	{
		OFFSET	-82.8	-127.5	0.300001
		CHANNELS 3  Xrotation Yrotation Zrotation
		JOINT left_knee
		{
			OFFSET	-28.2	-396.7	2.2
			CHANNELS 3  Xrotation Yrotation Zrotation
			JOINT left_ankle
			{
				OFFSET	-11.7	-411.3	35.4
				CHANNELS 3  Xrotation Yrotation Zrotation
				JOINT left_toes
				{
					OFFSET	0	-60	-88.6
					CHANNELS 3  Xrotation Yrotation Zrotation
					JOINT left_foot_ee
					{
						OFFSET	-22.5	-16.5	-42.2
						CHANNELS 3  Xrotation Yrotation Zrotation
						End Site
						{
							OFFSET	1	0	0
						}
					}
				}
			}
		}
	}
	JOINT right_hip
	{
		OFFSET	82.8	-127.5	0.300001
		CHANNELS 3  Xrotation Yrotation Zrotation
		JOINT right_knee
		{
			OFFSET	28.2	-396.7	2.2
			CHANNELS 3  Xrotation Yrotation Zrotation
			JOINT right_ankle
			{
				OFFSET	11.7	-411.3	35.4
				CHANNELS 3  Xrotation Yrotation Zrotation
				JOINT right_toes
				{
					OFFSET	0	-60	-88.6
					CHANNELS 3  Xrotation Yrotation Zrotation
					JOINT right_foot_ee
					{
						OFFSET	22.5	-16.5	-42.2
						CHANNELS 3  Xrotation Yrotation Zrotation
						End Site
						{
							OFFSET	1	0	0
						}
					}
				}
			}
		}
	}
}
MOTION
Frames: 13
Frame Time: 0.02
1372.05 701.618 -1475.22 15.0586640853 55.4388535048 -12.7565577599 -3.64344 -0.454264 -1.38891 -3.64244 -0.364973 -1.41499 -3.63153 0.0331449 -1.46092 -3.63445 -0.197971 -1.44782 -9.28649 21.4324 9.80327 -9.33671 33.7147 14.7425 -0.0 0.0 -0.0 3.97734 18.9305 8.19261 17.1888 -29.4727 70.39 6.16997 -71.8506 4.47252 -39.6608 -2.91516 4.03619 1.53987 15.7577 16.1527 -0.0 0.0 -0.0 11.2036 -9.02656 -21.2661 -10.3559 1.11833 -55.6075 0.212585 6.01173 -0.011163 -56.3231 4.82935 -4.97208 7.43279 -34.9159 -68.6948 0.0 0.0 0.0 -29.31 23.2148 6.16488 -16.9665 0.319419 2.57458 40.0594 -1.0413 -4.88949 -0.828076 0.0 0.0 -0.0 0.0 -0.0 33.119 33.3835 -16.6208 -3.97081 -0.143002 -0.592498 5.87021 -22.2611 0.871948 -24.2086 0.0 0.0 0.0 0.0 0.0 
1288.24806145 702.034 -1490.60610072 14.6125251536 63.7296683038 -12.9465443298 -3.77572 -0.310901 -1.72145 -3.77409 -0.200747 -1.73774 -3.76539 0.282999 -1.72626 -3.76955 0.00686091 -1.74928 -5.04871 17.2852 4.03203 -4.85285 28.8734 7.0923 -0.0 0.0 -0.0 5.74773 19.0412 10.8938 9.9417 -31.5123 70.4248 5.83088 -70.8737 4.1512 -38.0304 -2.74418 3.91564 1.13959 17.5317 14.1924 -0.0 0.0 -0.0 11.6475 -10.1045 -21.9735 -6.63059 3.68328 -55.1811 0.19275 5.45435 -0.00918153 -65.3183 5.95059 -5.23573 7.17451 -34.4771 -64.5505 0.0 0.0 0.0 -33.3364 21.8953 6.20034 -9.07241 0.265888 1.3655 37.8595 -6.17304 -4.76086 1.79817 -0.0 -0.0 -0.0 0.0 -0.0 35.4137 33.0076 -15.3208 -18.299 -0.312004 -2.77889 15.9616 -26.6439 2.34815 -33.4465 0.0 0.0 0.0 0.0 0.0 
1269.94957545 705.322 -1496.93718919 14.8706684055 65.2710045745 -13.0704981736 -3.75233 -0.225067 -1.81852 -3.7505 -0.108914 -1.82915 -3.74431 0.395757 -1.78915 -3.74876 0.108277 -1.82919 -5.78025 15.442 2.13666 -5.6829 26.9965 5.02186 -0.0 0.0 -0.0 6.03693 20.0192 11.2864 7.95813 -31.9582 69.8627 5.40805 -69.5033 3.75337 -37.4754 -2.68676 3.87351 1.42933 17.0481 15.8681 -0.0 0.0 -0.0 11.7296 -10.1593 -22.1239 -5.3298 5.09558 -55.579 0.231897 6.55329 -0.0132762 -65.1094 5.92415 -5.23162 7.0889 -34.4471 -63.2953 0.0 0.0 0.0 -34.3862 22.3502 6.11528 -5.88316 0.197133 0.880976 38.328 -6.86984 -4.81521 1.81562 -0.0 -0.0 -0.0 0.0 -0.0 35.0531 32.7726 -15.0091 -18.8156 -0.307852 -2.85805 15.5758 -28.4524 2.32116 -31.8899 0.0 0.0 0.0 0.0 0.0 
1241.7973118 712.618 -1500.85982871 15.5561305793 68.8051550749 -14.1041715113 -3.37234 -0.17312 -1.77557 -3.37059 -0.0598034 -1.78299 -3.3664 0.418945 -1.73412 -3.37057 0.139861 -1.7785 -6.38872 13.727 1.11329 -6.34984 24.6496 3.79686 -0.0 0.0 -0.0 6.2647 21.6498 11.5258 4.6267 -33.7433 69.6846 4.72621 -66.8485 3.12023 -37.8539 -2.72588 3.90231 1.34974 16.5612 15.1991 -0.0 0.0 -0.0 11.9214 -9.00952 -22.6699 -2.30696 6.78255 -55.8996 0.197757 5.59516 -0.00966356 -68.8707 6.40199 -5.29069 7.02075 -34.237 -62.4266 0.0 0.0 0.0 -34.4214 21.4311 5.02805 -5.21017 0.179183 0.779256 36.7166 -10.06 -4.73127 2.49778 -0.0 -0.0 -0.0 0.0 -0.0 35.2548 32.4996 -14.8973 -23.9392 -0.228115 -3.63993 16.8822 -28.325 2.50176 -34.4448 0.0 0.0 0.0 0.0 0.0 
1191.2225485 719.654 -1509.68054531 18.3462988773 75.0830241445 -17.2782660865 -3.11721 -0.0918899 -1.73091 -3.11554 0.018422 -1.73325 -3.11412 0.473716 -1.66738 -3.11794 0.204481 -1.72125 -4.1898 12.6489 1.39411 -4.0445 22.123 3.4645 -0.0 0.0 -0.0 5.60137 23.4838 10.457 -0.216355 -36.8901 68.3116 3.81933 -62.1246 2.30108 -38.0656 -2.74783 3.9183 1.11677 15.8312 13.4671 -0.0 0.0 -0.0 11.6219 -7.40498 -22.2988 -1.64701 13.083 -59.4721 0.195514 5.5321 -0.00944617 -77.3479 7.48452 -5.30759 6.48169 -32.7309 -56.3014 0.0 0.0 0.0 -29.2817 17.6252 0.912241 -12.8486 0.312287 1.94295 33.2326 -14.9817 -4.51474 3.43827 -0.0 -0.0 -0.0 0.0 -0.0 34.7562 32.2574 -15.2784 -31.3722 0.0109327 -4.75483 27.4627 -27.125 3.85907 -35.9786 0.0 0.0 0.0 0.0 0.0 
1191.51929735 719.654 -1511.20279869 17.793157384 74.6241023383 -16.7052224863 -3.11721 -0.0918899 -1.73091 -3.11554 0.018422 -1.73325 -3.11412 0.473716 -1.66738 -3.11794 0.204481 -1.72125 -4.1898 12.6489 1.39411 -4.0445 22.123 3.4645 -0.0 0.0 -0.0 5.60137 23.4838 10.457 -0.216355 -36.8901 68.3116 3.81933 -62.1246 2.30108 -38.0656 -2.74783 3.9183 1.11677 15.8312 13.4671 -0.0 0.0 -0.0 11.6219 -7.40498 -22.2988 -1.64701 13.083 -59.4721 0.195514 5.5321 -0.00944617 -77.3479 7.48452 -5.30759 6.48169 -32.7309 -56.3014 0.0 0.0 0.0 -29.2817 17.6252 0.912241 -12.8486 0.312287 1.94295 33.2326 -14.9817 -4.51474 3.43827 -0.0 -0.0 -0.0 0.0 -0.0 34.7562 32.2574 -15.2784 -31.3722 0.0109327 -4.75483 27.4627 -27.125 3.85907 -35.9786 0.0 0.0 0.0 0.0 0.0 
1122.3787949 716.102 -1509.3165606 35.9400530754 83.8404086422 -34.6035448656 -2.9073 0.355932 -1.77628 -2.90567 0.468223 -1.75005 -2.91889 0.906913 -1.56829 -2.92173 0.647886 -1.6918 0.00368708 11.6589 2.02549 0.259993 19.1532 3.37494 -0.0 0.0 -0.0 3.63452 25.7247 7.71047 -5.02528 -39.2211 67.9375 3.3154 -58.65 1.86278 -39.7211 -2.92155 4.04055 0.808213 16.234 11.6579 -0.0 0.0 -0.0 11.5822 -4.65377 -22.545 -0.433259 19.1275 -61.6063 0.199741 5.65094 -0.00985794 -85.2652 8.48507 -5.17799 5.96342 -32.492 -51.0859 0.0 0.0 0.0 -23.9252 10.2196 -4.28455 -25.5634 0.188274 3.886 32.6946 -19.8824 -4.62424 5.92878 -0.0 -0.0 -0.0 0.0 -0.0 33.3092 31.6373 -17.2056 -36.8466 0.278432 -5.55175 40.3244 -25.7411 5.22387 -38.7008 0.0 0.0 0.0 0.0 0.0 
1122.99218459 716.102 -1513.54089095 31.2702589082 83.0313549774 -29.9030875646 -2.9073 0.355932 -1.77628 -2.90567 0.468223 -1.75005 -2.91889 0.906913 -1.56829 -2.92173 0.647886 -1.6918 0.00368708 11.6589 2.02549 0.259993 19.1532 3.37494 -0.0 0.0 -0.0 3.63452 25.7247 7.71047 -5.02528 -39.2211 67.9375 3.3154 -58.65 1.86278 -39.7211 -2.92155 4.04055 0.808213 16.234 11.6579 -0.0 0.0 -0.0 11.5822 -4.65377 -22.545 -0.433259 19.1275 -61.6063 0.199741 5.65094 -0.00985794 -85.2652 8.48507 -5.17799 5.96342 -32.492 -51.0859 0.0 0.0 0.0 -23.9252 10.2196 -4.28455 -25.5634 0.188274 3.886 32.6946 -19.8824 -4.62424 5.92878 -0.0 -0.0 -0.0 0.0 -0.0 33.3092 31.6373 -17.2056 -36.8466 0.278432 -5.55175 40.3244 -25.7411 5.22387 -38.7008 0.0 0.0 0.0 0.0 0.0 
1090.06328357 732.657 -1511.87266098 111.285216238 86.5738269228 -108.87033844 -2.54872 0.119116 -1.92738 -2.54668 0.241496 -1.9159 -2.55301 0.719594 -1.79202 -2.55723 0.427601 -1.88313 -1.0734 13.4821 2.54086 -0.773354 22.2123 4.25988 -0.0 0.0 -0.0 3.16254 24.1176 7.06714 -6.32489 -35.593 69.2207 2.26402 -48.2718 1.01455 -42.581 -3.22974 4.2398 0.439585 16.5545 9.4701 -0.0 0.0 -0.0 11.85 -0.733249 -23.4797 -0.110479 25.8001 -61.7455 0.25337 7.15408 -0.0158388 -84.3966 8.37642 -5.19901 5.17989 -28.9254 -44.4401 0.0 0.0 0.0 -14.064 0.471717 -9.33813 -38.6391 -0.382463 5.80682 21.3755 -22.182 -3.31929 5.54105 -0.0 -0.0 -0.0 0.0 -0.0 27.7926 25.1005 -15.7709 -31.9365 0.0349633 -4.83809 41.2416 -26.5126 5.33875 -37.227 0.0 0.0 0.0 0.0 0.0 
1069.96099694 736.002 -1508.32235078 146.155436763 84.9512008266 -143.205059366 -2.47206 0.172535 -1.96373 -2.46996 0.297118 -1.94878 -2.47839 0.779412 -1.81072 -2.48264 0.483717 -1.91104 -1.39027 13.0707 2.09543 -1.11423 21.8833 3.79026 -0.0 0.0 -0.0 2.89173 24.142 6.6989 -7.2277 -34.2775 69.4013 1.99222 -44.6169 0.817481 -43.521 -3.33317 4.30192 0.0480358 17.1605 7.27928 -0.0 0.0 -0.0 11.9929 0.567091 -23.8888 0.62862 28.0765 -62.3175 0.213687 6.04265 -0.0112786 -85.2012 8.47707 -5.17959 5.10773 -30.6149 -43.8405 0.0 0.0 0.0 -12.274 -2.23923 -10.5269 -41.1966 -0.544642 6.16496 22.4452 -23.527 -3.51056 4.36587 -0.0 -0.0 -0.0 0.0 -0.0 26.6089 23.9307 -15.9946 -30.757 -0.0143271 -4.66381 42.6231 -26.997 5.48617 -37.4766 0.0 0.0 0.0 0.0 0.0 
1029.65952613 750.786 -1491.72882189 166.614409183 77.9543487694 -163.434791033 -2.20993 0.163675 -1.73422 -2.20829 0.27368 -1.7203 -2.2153 0.691668 -1.59876 -2.21861 0.430532 -1.6879 -1.75909 14.1243 2.3853 -1.45423 23.6326 4.27739 -0.0 0.0 -0.0 3.27745 23.9594 7.22192 -9.2381 -31.3595 67.9829 1.30087 -32.7968 0.382843 -45.3052 -3.53221 4.41512 -0.161668 17.7756 6.23525 -0.0 0.0 -0.0 12.3591 2.03877 -24.7907 1.13855 33.723 -61.0765 0.347525 9.76813 -0.0296961 -85.1706 8.47324 -5.18036 4.7694 -29.0791 -41.1657 0.0 0.0 0.0 -5.47841 -6.12221 -12.8108 -47.4963 -1.01117 7.01392 16.8115 -29.9209 -2.92453 2.24069 -0.0 -0.0 -0.0 0.0 -0.0 22.9992 21.4209 -16.0443 -30.1321 -0.0389861 -4.57107 42.2323 -27.2764 5.46088 -35.4642 0.0 0.0 0.0 0.0 0.0 
1030.42542025 750.786 -1503.44099064 164.083814671 79.8529539215 -160.856355528 -2.20993 0.163675 -1.73422 -2.20829 0.27368 -1.7203 -2.2153 0.691668 -1.59876 -2.21861 0.430532 -1.6879 -1.75909 14.1243 2.3853 -1.45423 23.6326 4.27739 -0.0 0.0 -0.0 3.27745 23.9594 7.22192 -9.2381 -31.3595 67.9829 1.30087 -32.7968 0.382843 -45.3052 -3.53221 4.41512 -0.161668 17.7756 6.23525 -0.0 0.0 -0.0 12.3591 2.03877 -24.7907 1.13855 33.723 -61.0765 0.347525 9.76813 -0.0296961 -85.1706 8.47324 -5.18036 4.7694 -29.0791 -41.1657 0.0 0.0 0.0 -5.47841 -6.12221 -12.8108 -47.4963 -1.01117 7.01392 16.8115 -29.9209 -2.92453 2.24069 -0.0 -0.0 -0.0 0.0 -0.0 22.9992 21.4209 -16.0443 -30.1321 -0.0389861 -4.57107 42.2323 -27.2764 5.46088 -35.4642 0.0 0.0 0.0 0.0 0.0 
991.662066361 758.296 -1471.51680653 162.779341144 75.3038053851 -160.324173982 -2.03809 0.361227 -1.51077 -2.03693 0.456618 -1.48473 -2.04824 0.806626 -1.32754 -2.05022 0.586867 -1.43824 -8.91342 14.8996 3.11966 -9.04105 25.8185 6.58986 -0.0 0.0 -0.0 2.9268 25.0941 6.76675 -10.7551 -28.6309 66.9763 0.882408 -23.6108 0.184435 -44.7525 -3.47017 4.38071 -0.0941232 18.3106 6.85554 -0.0 0.0 -0.0 12.4046 2.46393 -24.9194 3.93373 36.9539 -60.5004 0.585862 16.1839 -0.0832973 -85.4048 8.50249 -5.17445 2.69858 -29.2976 -27.0178 0.0 0.0 0.0 2.12344 -7.48228 -12.408 -55.0211 -1.68701 7.95454 9.27639 -28.117 -1.63435 -0.0819581 0.0 0.0 -0.0 0.0 -0.0 18.1019 20.3675 -15.6789 -30.9463 -0.00665954 -4.69184 41.8378 -26.5858 5.39756 -34.1197 0.0 0.0 0.0 0.0 0.0 
